# xmcd CD database file
#
# Track frame offsets:
#	150
#	15930
#	30438
#	43300
#	57338
#	71350
#	87943
#	103930
#	119225
#	134895
#
# Disc length: 2026 seconds
#
# Revision: 3
# Processed by: cddbd v1.5.2PL0 Copyright (c) Steve Scherf et al.
# Submitted via: CDex 1.79
#
DISCID=8f07e80a
DTITLE=Larry Boone - Get In Line
DYEAR=1993
DGENRE=Country
TTITLE0=Daddy's Honky Tonk Heart
TTITLE1=Call Me When The Sun Goes Down
TTITLE2=Bad Intentions
TTITLE3=Her Only Bad Habit Is Me
TTITLE4=I Still Got (What You Got Over)
TTITLE5=Get In Line
TTITLE6=Hotel Coupe DeVille
TTITLE7=She's A Yum Yum
TTITLE8=King Of The Mountain
TTITLE9=Watermelon Time In Georgia
EXTD=YEAR: 1993
EXTT0=
EXTT1=
EXTT2=
EXTT3=
EXTT4=
EXTT5=
EXTT6=
EXTT7=
EXTT8=
EXTT9=
PLAYORDER=
